<mxfile host="app.diagrams.net" agent="Mozilla/5.0 (Windows NT 10.0; Win64; x64) AppleWebKit/537.36 (KHTML, like Gecko) Chrome/134.0.0.0 Safari/537.36" version="26.1.3">
  <diagram name="Page-1" id="Ers_0D8AIEskKPhGXi_z">
    <mxGraphModel dx="1222" dy="696" grid="1" gridSize="10" guides="1" tooltips="1" connect="1" arrows="1" fold="1" page="1" pageScale="1" pageWidth="827" pageHeight="1169" background="#ffffff" math="0" shadow="0">
      <root>
        <mxCell id="0" />
        <mxCell id="1" parent="0" />
        <mxCell id="OanO3eut2pu2ap7_c-UY-1" value="" style="rounded=0;html=1;jettySize=auto;orthogonalLoop=1;fontSize=11;endArrow=classic;endFill=1;endSize=8;strokeWidth=1;shadow=0;labelBackgroundColor=none;edgeStyle=orthogonalEdgeStyle;exitX=0.5;exitY=1;exitDx=0;exitDy=0;" parent="1" source="OanO3eut2pu2ap7_c-UY-8" target="OanO3eut2pu2ap7_c-UY-6" edge="1">
          <mxGeometry relative="1" as="geometry">
            <mxPoint x="290" y="270" as="sourcePoint" />
          </mxGeometry>
        </mxCell>
        <mxCell id="OanO3eut2pu2ap7_c-UY-2" value="Авторизован?" style="edgeLabel;html=1;align=center;verticalAlign=middle;resizable=0;points=[];" parent="OanO3eut2pu2ap7_c-UY-1" vertex="1" connectable="0">
          <mxGeometry x="-0.28" y="3" relative="1" as="geometry">
            <mxPoint x="-3" y="14" as="offset" />
          </mxGeometry>
        </mxCell>
        <mxCell id="OanO3eut2pu2ap7_c-UY-3" value="Да" style="rounded=0;html=1;jettySize=auto;orthogonalLoop=1;fontSize=11;endArrow=classic;endFill=1;endSize=8;strokeWidth=1;shadow=0;labelBackgroundColor=none;edgeStyle=orthogonalEdgeStyle;" parent="1" source="OanO3eut2pu2ap7_c-UY-6" target="OanO3eut2pu2ap7_c-UY-17" edge="1">
          <mxGeometry x="-0.3371" y="10" relative="1" as="geometry">
            <mxPoint as="offset" />
            <mxPoint x="290" y="540" as="targetPoint" />
          </mxGeometry>
        </mxCell>
        <mxCell id="OanO3eut2pu2ap7_c-UY-4" value="Нет" style="edgeStyle=orthogonalEdgeStyle;rounded=0;html=1;jettySize=auto;orthogonalLoop=1;fontSize=11;endArrow=classic;endFill=1;endSize=8;strokeWidth=1;shadow=0;labelBackgroundColor=none;" parent="1" source="OanO3eut2pu2ap7_c-UY-6" target="OanO3eut2pu2ap7_c-UY-14" edge="1">
          <mxGeometry x="-0.7501" y="10" relative="1" as="geometry">
            <mxPoint as="offset" />
            <mxPoint x="420" y="410" as="targetPoint" />
            <Array as="points">
              <mxPoint x="460" y="410" />
            </Array>
          </mxGeometry>
        </mxCell>
        <mxCell id="OanO3eut2pu2ap7_c-UY-5" style="edgeStyle=orthogonalEdgeStyle;rounded=0;orthogonalLoop=1;jettySize=auto;html=1;exitX=1;exitY=0.5;exitDx=0;exitDy=0;entryX=0.5;entryY=0;entryDx=0;entryDy=0;" parent="1" source="OanO3eut2pu2ap7_c-UY-6" target="OanO3eut2pu2ap7_c-UY-40" edge="1">
          <mxGeometry relative="1" as="geometry" />
        </mxCell>
        <mxCell id="OanO3eut2pu2ap7_c-UY-6" value="" style="rhombus;whiteSpace=wrap;html=1;shadow=0;fontFamily=Helvetica;fontSize=12;align=center;strokeWidth=1;spacing=6;spacingTop=-4;" parent="1" vertex="1">
          <mxGeometry x="240" y="370" width="100" height="80" as="geometry" />
        </mxCell>
        <mxCell id="OanO3eut2pu2ap7_c-UY-113" style="edgeStyle=orthogonalEdgeStyle;rounded=0;orthogonalLoop=1;jettySize=auto;html=1;exitX=0;exitY=0.5;exitDx=0;exitDy=0;" parent="1" source="OanO3eut2pu2ap7_c-UY-8" edge="1">
          <mxGeometry relative="1" as="geometry">
            <mxPoint x="140" y="920" as="targetPoint" />
          </mxGeometry>
        </mxCell>
        <mxCell id="OanO3eut2pu2ap7_c-UY-8" value="Открыть сайт" style="rounded=0;whiteSpace=wrap;html=1;" parent="1" vertex="1">
          <mxGeometry x="230" y="90" width="120" height="60" as="geometry" />
        </mxCell>
        <mxCell id="OanO3eut2pu2ap7_c-UY-9" value="" style="ellipse;shape=doubleEllipse;whiteSpace=wrap;html=1;aspect=fixed;fillColor=#000000;" parent="1" vertex="1">
          <mxGeometry x="280" width="20" height="20" as="geometry" />
        </mxCell>
        <mxCell id="OanO3eut2pu2ap7_c-UY-10" value="" style="endArrow=classic;html=1;rounded=0;" parent="1" source="OanO3eut2pu2ap7_c-UY-9" target="OanO3eut2pu2ap7_c-UY-8" edge="1">
          <mxGeometry width="50" height="50" relative="1" as="geometry">
            <mxPoint x="620" y="260" as="sourcePoint" />
            <mxPoint x="670" y="210" as="targetPoint" />
          </mxGeometry>
        </mxCell>
        <mxCell id="OanO3eut2pu2ap7_c-UY-13" style="edgeStyle=orthogonalEdgeStyle;rounded=0;orthogonalLoop=1;jettySize=auto;html=1;exitX=0.5;exitY=1;exitDx=0;exitDy=0;entryX=1;entryY=0.5;entryDx=0;entryDy=0;" parent="1" source="OanO3eut2pu2ap7_c-UY-14" target="OanO3eut2pu2ap7_c-UY-17" edge="1">
          <mxGeometry relative="1" as="geometry" />
        </mxCell>
        <mxCell id="OanO3eut2pu2ap7_c-UY-14" value="Войти в аккаунт" style="rounded=0;whiteSpace=wrap;html=1;" parent="1" vertex="1">
          <mxGeometry x="400" y="450" width="120" height="60" as="geometry" />
        </mxCell>
        <mxCell id="OanO3eut2pu2ap7_c-UY-15" style="edgeStyle=orthogonalEdgeStyle;rounded=0;orthogonalLoop=1;jettySize=auto;html=1;exitX=0.5;exitY=1;exitDx=0;exitDy=0;entryX=0.5;entryY=0;entryDx=0;entryDy=0;" parent="1" source="OanO3eut2pu2ap7_c-UY-17" target="OanO3eut2pu2ap7_c-UY-38" edge="1">
          <mxGeometry relative="1" as="geometry" />
        </mxCell>
        <mxCell id="OanO3eut2pu2ap7_c-UY-16" style="edgeStyle=orthogonalEdgeStyle;rounded=0;orthogonalLoop=1;jettySize=auto;html=1;exitX=0.5;exitY=1;exitDx=0;exitDy=0;entryX=0.5;entryY=0;entryDx=0;entryDy=0;" parent="1" source="OanO3eut2pu2ap7_c-UY-17" target="OanO3eut2pu2ap7_c-UY-19" edge="1">
          <mxGeometry relative="1" as="geometry" />
        </mxCell>
        <mxCell id="OanO3eut2pu2ap7_c-UY-112" style="edgeStyle=orthogonalEdgeStyle;rounded=0;orthogonalLoop=1;jettySize=auto;html=1;exitX=0.5;exitY=1;exitDx=0;exitDy=0;entryX=0.5;entryY=0;entryDx=0;entryDy=0;" parent="1" source="OanO3eut2pu2ap7_c-UY-17" target="OanO3eut2pu2ap7_c-UY-24" edge="1">
          <mxGeometry relative="1" as="geometry" />
        </mxCell>
        <mxCell id="OanO3eut2pu2ap7_c-UY-17" value="Авторизация" style="rounded=0;whiteSpace=wrap;html=1;" parent="1" vertex="1">
          <mxGeometry x="230" y="520" width="120" height="60" as="geometry" />
        </mxCell>
        <mxCell id="OanO3eut2pu2ap7_c-UY-117" style="edgeStyle=orthogonalEdgeStyle;rounded=0;orthogonalLoop=1;jettySize=auto;html=1;exitX=0.5;exitY=1;exitDx=0;exitDy=0;" parent="1" source="OanO3eut2pu2ap7_c-UY-19" edge="1">
          <mxGeometry relative="1" as="geometry">
            <mxPoint x="599.7777777777778" y="920" as="targetPoint" />
          </mxGeometry>
        </mxCell>
        <mxCell id="OanO3eut2pu2ap7_c-UY-19" value="Редактировать профиль" style="rounded=0;whiteSpace=wrap;html=1;" parent="1" vertex="1">
          <mxGeometry x="540" y="720" width="120" height="60" as="geometry" />
        </mxCell>
        <mxCell id="OanO3eut2pu2ap7_c-UY-115" style="edgeStyle=orthogonalEdgeStyle;rounded=0;orthogonalLoop=1;jettySize=auto;html=1;exitX=0.5;exitY=1;exitDx=0;exitDy=0;" parent="1" source="OanO3eut2pu2ap7_c-UY-24" edge="1">
          <mxGeometry relative="1" as="geometry">
            <mxPoint x="290.8888888888889" y="920" as="targetPoint" />
          </mxGeometry>
        </mxCell>
        <mxCell id="OanO3eut2pu2ap7_c-UY-24" value="Купить подписку" style="rounded=0;whiteSpace=wrap;html=1;" parent="1" vertex="1">
          <mxGeometry x="230" y="720" width="120" height="60" as="geometry" />
        </mxCell>
        <mxCell id="OanO3eut2pu2ap7_c-UY-33" value="" style="ellipse;html=1;shape=endState;fillColor=#000000;strokeColor=#000000;" parent="1" vertex="1">
          <mxGeometry x="385" y="1070" width="30" height="30" as="geometry" />
        </mxCell>
        <mxCell id="OanO3eut2pu2ap7_c-UY-116" style="edgeStyle=orthogonalEdgeStyle;rounded=0;orthogonalLoop=1;jettySize=auto;html=1;exitX=0.5;exitY=1;exitDx=0;exitDy=0;" parent="1" source="OanO3eut2pu2ap7_c-UY-38" edge="1">
          <mxGeometry relative="1" as="geometry">
            <mxPoint x="450.8888888888889" y="920" as="targetPoint" />
          </mxGeometry>
        </mxCell>
        <mxCell id="OanO3eut2pu2ap7_c-UY-38" value="Просмотр страниц для авторизованных пользователей" style="rounded=0;whiteSpace=wrap;html=1;" parent="1" vertex="1">
          <mxGeometry x="390" y="720" width="120" height="60" as="geometry" />
        </mxCell>
        <mxCell id="OanO3eut2pu2ap7_c-UY-118" style="edgeStyle=orthogonalEdgeStyle;rounded=0;orthogonalLoop=1;jettySize=auto;html=1;exitX=0.5;exitY=1;exitDx=0;exitDy=0;" parent="1" source="OanO3eut2pu2ap7_c-UY-40" edge="1">
          <mxGeometry relative="1" as="geometry">
            <mxPoint x="679.7777777777778" y="920" as="targetPoint" />
          </mxGeometry>
        </mxCell>
        <mxCell id="OanO3eut2pu2ap7_c-UY-40" value="Просмотр страниц для неавторизованных пользователей" style="rounded=0;whiteSpace=wrap;html=1;" parent="1" vertex="1">
          <mxGeometry x="620" y="450" width="120" height="60" as="geometry" />
        </mxCell>
        <mxCell id="OanO3eut2pu2ap7_c-UY-106" style="edgeStyle=orthogonalEdgeStyle;rounded=0;orthogonalLoop=1;jettySize=auto;html=1;exitX=0.5;exitY=1;exitDx=0;exitDy=0;entryX=0.5;entryY=0;entryDx=0;entryDy=0;" parent="1" source="OanO3eut2pu2ap7_c-UY-107" target="OanO3eut2pu2ap7_c-UY-33" edge="1">
          <mxGeometry relative="1" as="geometry" />
        </mxCell>
        <mxCell id="OanO3eut2pu2ap7_c-UY-107" value="Покинуть сайт" style="rounded=0;whiteSpace=wrap;html=1;" parent="1" vertex="1">
          <mxGeometry x="340" y="970" width="120" height="60" as="geometry" />
        </mxCell>
        <mxCell id="OanO3eut2pu2ap7_c-UY-114" value="" style="endArrow=none;html=1;rounded=0;" parent="1" edge="1">
          <mxGeometry width="50" height="50" relative="1" as="geometry">
            <mxPoint x="140" y="920" as="sourcePoint" />
            <mxPoint x="680" y="920" as="targetPoint" />
          </mxGeometry>
        </mxCell>
        <mxCell id="OanO3eut2pu2ap7_c-UY-119" value="" style="endArrow=classic;html=1;rounded=0;entryX=0.5;entryY=0;entryDx=0;entryDy=0;" parent="1" target="OanO3eut2pu2ap7_c-UY-107" edge="1">
          <mxGeometry width="50" height="50" relative="1" as="geometry">
            <mxPoint x="400" y="920" as="sourcePoint" />
            <mxPoint x="340" y="730" as="targetPoint" />
          </mxGeometry>
        </mxCell>
      </root>
    </mxGraphModel>
  </diagram>
</mxfile>
